<svg version="1.1" xmlns="http://www.w3.org/2000/svg" viewBox="0 0 2192.0536400103756 1121.4901832598327" width="4384.107280020751" height="2242.9803665196655">
  <!-- svg-source:excalidraw -->
  
  <defs>
    <style class="style-fonts">
      @font-face {
        font-family: "Virgil";
        src: url("https://excalidraw.com/Virgil.woff2");
      }
      @font-face {
        font-family: "Cascadia";
        src: url("https://excalidraw.com/Cascadia.woff2");
      }
      @font-face {
        font-family: "Assistant";
        src: url("https://excalidraw.com/Assistant-Regular.woff2");
      }
    </style>
    
  </defs>
  <rect x="0" y="0" width="2192.0536400103756" height="1121.4901832598327" fill="#ffffff"></rect><g stroke-linecap="round" transform="translate(1877.1605047601442 293.956469982468) rotate(0 117.28059118132023 178.28354948799142)"><path d="M32 0 C74.07 0.86, 110.85 -3.33, 202.56 0 C224.91 1.03, 236.58 8.3, 234.56 32 C234.47 103.32, 234.74 168.96, 234.56 324.57 C235.09 349.23, 223.37 357.43, 202.56 356.57 C137.19 356.84, 66.18 354.32, 32 356.57 C11.47 355.58, -2.46 348.59, 0 324.57 C0.84 260.83, 0.87 197.31, 0 32 C-0.72 10.55, 13.7 -1.06, 32 0" stroke="none" stroke-width="0" fill="#ffec99"></path><path d="M32 0 C99.66 1.58, 165.52 1.92, 202.56 0 M32 0 C91.25 -1.37, 148.73 -0.46, 202.56 0 M202.56 0 C222.88 1.49, 235.3 12.26, 234.56 32 M202.56 0 C223.5 0.65, 234.96 11.27, 234.56 32 M234.56 32 C235.29 144.72, 235.66 256.59, 234.56 324.57 M234.56 32 C235.7 103.4, 235.59 176.62, 234.56 324.57 M234.56 324.57 C234.87 345.56, 225.47 357.8, 202.56 356.57 M234.56 324.57 C236.82 346.19, 222.64 355.31, 202.56 356.57 M202.56 356.57 C142.31 355.03, 84.22 357.64, 32 356.57 M202.56 356.57 C164 354.18, 126.39 354.15, 32 356.57 M32 356.57 C9.73 356.68, 1.64 345.98, 0 324.57 M32 356.57 C8.91 358.69, 1.66 344.87, 0 324.57 M0 324.57 C0.04 236.58, 0.61 146.63, 0 32 M0 324.57 C-0.83 262.8, -0.99 199.4, 0 32 M0 32 C-1.21 12.16, 12.27 -0.7, 32 0 M0 32 C-2.05 11.63, 8.91 0.84, 32 0" stroke="#1e1e1e" stroke-width="2" fill="none"></path></g><g stroke-linecap="round" transform="translate(1571.3343426374868 369.82083108302993) rotate(0 132.16379199104358 107.88322435597883)"><path d="M32 0 C96.57 -1.76, 158.01 -0.74, 232.33 0 C250.34 2.53, 263.99 14.24, 264.33 32 C262.3 84.37, 261.84 134.06, 264.33 183.77 C261.14 205.67, 256.21 218.87, 232.33 215.77 C156.72 216.94, 76.87 216.48, 32 215.77 C10.82 219.09, -2.83 203.5, 0 183.77 C0.96 133.91, -4.44 83.66, 0 32 C3.24 10.22, 10.78 2.85, 32 0" stroke="none" stroke-width="0" fill="#a5d8ff"></path><path d="M32 0 C72.81 -0.15, 111.11 0.15, 232.33 0 M32 0 C99.83 0.33, 168.38 0.12, 232.33 0 M232.33 0 C255.47 -0.77, 266 10.81, 264.33 32 M232.33 0 C255.79 -2.25, 265.76 8.77, 264.33 32 M264.33 32 C265.82 72.19, 267.52 111.6, 264.33 183.77 M264.33 32 C264.43 62.58, 264.06 95.45, 264.33 183.77 M264.33 183.77 C262.68 205.93, 254.19 214.74, 232.33 215.77 M264.33 183.77 C263.72 203.61, 251.81 216.98, 232.33 215.77 M232.33 215.77 C176.11 214.29, 117.61 214.13, 32 215.77 M232.33 215.77 C167.57 215.31, 104.23 214.5, 32 215.77 M32 215.77 C11.29 216.41, 1.64 206.14, 0 183.77 M32 215.77 C11.72 214.12, 1.7 204.33, 0 183.77 M0 183.77 C1.11 150.23, 0.01 118.03, 0 32 M0 183.77 C-2.17 150.08, -0.88 116.8, 0 32 M0 32 C-1.85 12.29, 10.31 -1.15, 32 0 M0 32 C-1.08 12.43, 11.68 0.31, 32 0" stroke="#1e1e1e" stroke-width="2" fill="none"></path></g><g stroke-linecap="round" transform="translate(10 203.634765625) rotate(0 54.0390625 50.37109375)"><path d="M25.19 0 C37.18 -1.38, 54.83 0.78, 82.89 0 M25.19 0 C48.01 -0.12, 69.4 0.66, 82.89 0 M82.89 0 C99.11 0.54, 106.7 9.89, 108.08 25.19 M82.89 0 C98.57 -1.98, 106.76 9.57, 108.08 25.19 M108.08 25.19 C106.56 37.24, 107.7 52.59, 108.08 75.56 M108.08 25.19 C108.59 43.86, 107.99 61.9, 108.08 75.56 M108.08 75.56 C109.25 90.76, 99.04 99.22, 82.89 100.74 M108.08 75.56 C105.89 93.03, 97.75 100.95, 82.89 100.74 M82.89 100.74 C66.19 102.47, 47.79 99.46, 25.19 100.74 M82.89 100.74 C64.07 100.39, 44.89 100.81, 25.19 100.74 M25.19 100.74 C7.77 100.7, -0.03 93.94, 0 75.56 M25.19 100.74 C9.12 101.54, -0.2 92.51, 0 75.56 M0 75.56 C0.94 54.48, 1.91 37.09, 0 25.19 M0 75.56 C-0.02 60.31, 0.75 45.78, 0 25.19 M0 25.19 C0.71 6.62, 10.02 -0.78, 25.19 0 M0 25.19 C-0.92 8.76, 6.41 0.1, 25.19 0" stroke="#1e1e1e" stroke-width="2" fill="none"></path></g><g transform="translate(22.499107360839844 241.505859375) rotate(0 41.539955139160156 12.5)"><text x="41.539955139160156" y="17.52" font-family="Virgil, Segoe UI Emoji" font-size="20px" fill="#1e1e1e" text-anchor="middle" style="white-space: pre;" direction="ltr" dominant-baseline="alphabetic">input.csv</text></g><g stroke-linecap="round" transform="translate(99.7734375 336.607421875) rotate(0 115.009765625 129.80859375)"><path d="M32 0 C77.6 -0.77, 121.97 -1.2, 198.02 0 M32 0 C82.63 -0.47, 130.59 -1.04, 198.02 0 M198.02 0 C219.34 1.65, 229.9 9.98, 230.02 32 M198.02 0 C220.28 -1.04, 230.41 9.24, 230.02 32 M230.02 32 C227.88 80.46, 231.15 132.18, 230.02 227.62 M230.02 32 C232.66 87.6, 232.03 141.71, 230.02 227.62 M230.02 227.62 C231.86 246.95, 220.53 261.37, 198.02 259.62 M230.02 227.62 C229.42 250.18, 218.69 261.41, 198.02 259.62 M198.02 259.62 C151.96 259.58, 106.63 260.77, 32 259.62 M198.02 259.62 C136.08 258.98, 74.87 259.29, 32 259.62 M32 259.62 C11.76 260.3, -0.69 250.35, 0 227.62 M32 259.62 C8.82 257.52, -0.37 248.78, 0 227.62 M0 227.62 C-1.97 180.33, -1.17 131.13, 0 32 M0 227.62 C-0.32 173.93, -0.95 120.43, 0 32 M0 32 C-1.18 9.33, 9.45 -0.5, 32 0 M0 32 C0.74 10.35, 10.61 0.95, 32 0" stroke="#1e1e1e" stroke-width="2" fill="none"></path></g><g transform="translate(139.4932403564453 453.916015625) rotate(0 75.28996276855469 12.5)"><text x="75.28996276855469" y="17.52" font-family="Virgil, Segoe UI Emoji" font-size="20px" fill="#1e1e1e" text-anchor="middle" style="white-space: pre;" direction="ltr" dominant-baseline="alphabetic">GCP STORAGE</text></g><g stroke-linecap="round"><g transform="translate(121.5 291.939453125) rotate(0 24.751010902272526 23.777888099951667)"><path d="M-0.21 -1.11 C5.85 -0.08, 28.44 -2, 37.02 6.14 C45.6 14.27, 49.26 40.51, 51.29 47.69 M-1.79 0.93 C4.61 1.57, 30.5 -3.77, 39.32 4.18 C48.15 12.14, 49.54 41.5, 51.15 48.66" stroke="#1e1e1e" stroke-width="2" fill="none"></path></g><g transform="translate(121.5 291.939453125) rotate(0 24.751010902272526 23.777888099951667)"><path d="M40.73 29.13 C42.56 34.73, 48.62 44.9, 51.15 48.66 M40.73 29.13 C42.4 34.8, 45.59 37.72, 51.15 48.66" stroke="#1e1e1e" stroke-width="2" fill="none"></path></g><g transform="translate(121.5 291.939453125) rotate(0 24.751010902272526 23.777888099951667)"><path d="M55.73 27.01 C52.27 33.33, 53.04 44.25, 51.15 48.66 M55.73 27.01 C53.7 33.31, 53.2 36.75, 51.15 48.66" stroke="#1e1e1e" stroke-width="2" fill="none"></path></g></g><mask></mask><g mask="url(#mask-wbO4e_fQRyIlWVroKyLBz)" stroke-linecap="round"><g transform="translate(327.17578125 461.236328125) rotate(0 99.18697346031666 -0.57353752908449)"><path d="M0.73 -0.49 C33.59 -0.72, 163.73 -0.76, 196.54 -0.94 M-0.34 -1.79 C32.93 -1.85, 165.85 0.44, 198.72 0.64" stroke="#1e1e1e" stroke-width="2" fill="none"></path></g><g transform="translate(327.17578125 461.236328125) rotate(0 99.18697346031666 -0.57353752908449)"><path d="M175.12 8.91 C180.21 4.97, 187.12 4.65, 198.72 0.64 M175.12 8.91 C180.56 6.88, 186.24 5.38, 198.72 0.64" stroke="#1e1e1e" stroke-width="2" fill="none"></path></g><g transform="translate(327.17578125 461.236328125) rotate(0 99.18697346031666 -0.57353752908449)"><path d="M175.33 -8.19 C180.43 -7.83, 187.29 -3.85, 198.72 0.64 M175.33 -8.19 C180.63 -5.88, 186.25 -3.03, 198.72 0.64" stroke="#1e1e1e" stroke-width="2" fill="none"></path></g></g><mask id="mask-wbO4e_fQRyIlWVroKyLBz"><rect x="0" y="0" fill="#fff" width="624.74609375" height="562.279296875"></rect><rect x="391.64097595214844" y="448.21484375" fill="#000" width="68.63992309570312" height="25" opacity="1"></rect></mask><g transform="translate(391.64097595214844 448.21484375) rotate(0 34.72177875816823 12.44794684591551)"><text x="34.31996154785156" y="17.52" font-family="Virgil, Segoe UI Emoji" font-size="20px" fill="#1e1e1e" text-anchor="middle" style="white-space: pre;" direction="ltr" dominant-baseline="alphabetic">Trigger</text></g><g stroke-linecap="round" transform="translate(527.4765625 334.025390625) rotate(0 146.912109375 121.064453125)"><path d="M32 0 C116.92 0.06, 201.79 1.03, 261.82 0 M32 0 C82.26 1.25, 133.56 1.88, 261.82 0 M261.82 0 C284.51 -1.82, 294.64 10.92, 293.82 32 M261.82 0 C281.32 -2.12, 295.72 10.44, 293.82 32 M293.82 32 C293.85 72.16, 294.35 109.31, 293.82 210.13 M293.82 32 C293.93 92.74, 294.39 154.22, 293.82 210.13 M293.82 210.13 C292.67 230.09, 281.22 241.66, 261.82 242.13 M293.82 210.13 C295.06 229.2, 284.25 242.59, 261.82 242.13 M261.82 242.13 C171.02 243.78, 81.78 242.27, 32 242.13 M261.82 242.13 C170.78 240.3, 80.13 241.47, 32 242.13 M32 242.13 C9.49 242.84, 0.4 232.98, 0 210.13 M32 242.13 C8.61 240.85, -1.8 230.2, 0 210.13 M0 210.13 C-3.44 167.59, -0.6 122.64, 0 32 M0 210.13 C-1.35 141.85, -0.98 71, 0 32 M0 32 C1.84 10.39, 11.4 -0.17, 32 0 M0 32 C0.28 8.92, 12.07 1.17, 32 0" stroke="#1e1e1e" stroke-width="2" fill="none"></path></g><g transform="translate(541.9122876001682 385.33978523386486) rotate(0 132.42990112304688 87.5)"><text x="0" y="17.52" font-family="Virgil, Segoe UI Emoji" font-size="20px" fill="#1e1e1e" text-anchor="start" style="white-space: pre;" direction="ltr" dominant-baseline="alphabetic">GCP Function: Transformer</text><text x="0" y="42.519999999999996" font-family="Virgil, Segoe UI Emoji" font-size="20px" fill="#1e1e1e" text-anchor="start" style="white-space: pre;" direction="ltr" dominant-baseline="alphabetic">timeout: 900 sec</text><text x="0" y="67.52" font-family="Virgil, Segoe UI Emoji" font-size="20px" fill="#1e1e1e" text-anchor="start" style="white-space: pre;" direction="ltr" dominant-baseline="alphabetic"></text><text x="0" y="92.52" font-family="Virgil, Segoe UI Emoji" font-size="20px" fill="#1e1e1e" text-anchor="start" style="white-space: pre;" direction="ltr" dominant-baseline="alphabetic">- Transforms input</text><text x="0" y="117.52" font-family="Virgil, Segoe UI Emoji" font-size="20px" fill="#1e1e1e" text-anchor="start" style="white-space: pre;" direction="ltr" dominant-baseline="alphabetic">- enriches with usd </text><text x="0" y="142.52" font-family="Virgil, Segoe UI Emoji" font-size="20px" fill="#1e1e1e" text-anchor="start" style="white-space: pre;" direction="ltr" dominant-baseline="alphabetic">  (with rate limiter)</text><text x="0" y="167.52" font-family="Virgil, Segoe UI Emoji" font-size="20px" fill="#1e1e1e" text-anchor="start" style="white-space: pre;" direction="ltr" dominant-baseline="alphabetic">- publishes to pub/sub</text></g><g mask="url(#mask-2-mtLr0XWyHm3Lf-3ZimH)" stroke-linecap="round"><g transform="translate(822.1015625 455.677734375) rotate(0 94.1240788704622 0.3811808544211317)"><path d="M0.59 -0.49 C32.14 -0.28, 157.27 0.57, 188.8 0.99 M-0.55 -1.8 C30.84 -1.36, 155.99 2.21, 187.64 2.56" stroke="#1e1e1e" stroke-width="2" fill="none"></path></g><g transform="translate(822.1015625 455.677734375) rotate(0 94.1240788704622 0.3811808544211317)"><path d="M163.98 10.62 C169.35 7.73, 176.43 7.31, 187.64 2.56 M163.98 10.62 C173.53 6.8, 183.26 5.24, 187.64 2.56" stroke="#1e1e1e" stroke-width="2" fill="none"></path></g><g transform="translate(822.1015625 455.677734375) rotate(0 94.1240788704622 0.3811808544211317)"><path d="M164.33 -6.48 C169.57 -4.9, 176.56 -0.86, 187.64 2.56 M164.33 -6.48 C173.87 -3.59, 183.45 1.55, 187.64 2.56" stroke="#1e1e1e" stroke-width="2" fill="none"></path></g></g><mask id="mask-2-mtLr0XWyHm3Lf-3ZimH"><rect x="0" y="0" fill="#fff" width="1111.3046875" height="556.619140625"></rect><rect x="884.1431655883789" y="443.6484375" fill="#000" width="65.11991882324219" height="25" opacity="1"></rect></mask><g transform="translate(884.1431655883789 443.6484375) rotate(0 32.08247578208329 12.410477729421132)"><text x="32.559959411621094" y="17.52" font-family="Virgil, Segoe UI Emoji" font-size="20px" fill="#1e1e1e" text-anchor="middle" style="white-space: pre;" direction="ltr" dominant-baseline="alphabetic">Publish</text></g><g stroke-linecap="round" transform="translate(1011.37109375 424.400390625) rotate(0 220.61328125 34.212890625)"><path d="M17.11 0 C127.73 2.23, 237.09 1.43, 424.12 0 M17.11 0 C157.39 -1.85, 297.23 -1.76, 424.12 0 M424.12 0 C437.33 0.01, 440.7 4.86, 441.23 17.11 M424.12 0 C434.31 -2.09, 441.76 4.21, 441.23 17.11 M441.23 17.11 C441.76 27.19, 440.39 41.19, 441.23 51.32 M441.23 17.11 C441.92 27.55, 441.88 37.47, 441.23 51.32 M441.23 51.32 C441.3 61.46, 437.22 68.1, 424.12 68.43 M441.23 51.32 C439.88 63.22, 435.2 67.55, 424.12 68.43 M424.12 68.43 C278.18 67.23, 132.17 67.89, 17.11 68.43 M424.12 68.43 C272.65 66.62, 121.65 66.65, 17.11 68.43 M17.11 68.43 C7.32 69.42, 1.08 64.56, 0 51.32 M17.11 68.43 C6.67 69.47, -1.63 61.11, 0 51.32 M0 51.32 C-1.9 41.88, -0.34 35.05, 0 17.11 M0 51.32 C0.82 38.3, 0.75 26.31, 0 17.11 M0 17.11 C1.83 4.46, 5.67 0.53, 17.11 0 M0 17.11 C0.1 6.36, 6.57 1.16, 17.11 0" stroke="#1e1e1e" stroke-width="2" fill="none"></path></g><g transform="translate(1032.37890625 436.341796875) rotate(0 198.96981811523438 25)"><text x="0" y="17.52" font-family="Virgil, Segoe UI Emoji" font-size="20px" fill="#1e1e1e" text-anchor="start" style="white-space: pre;" direction="ltr" dominant-baseline="alphabetic">pub/sub || </text><text x="0" y="42.519999999999996" font-family="Virgil, Segoe UI Emoji" font-size="20px" fill="#1e1e1e" text-anchor="start" style="white-space: pre;" direction="ltr" dominant-baseline="alphabetic">Subscriber schema: BigQueryTableSchema</text></g><g mask="url(#mask-RjhNJW2-642A3jJMYDfL1)" stroke-linecap="round"><g transform="translate(1455.6796875 464.439453125) rotate(0 49.61360621531503 0.6149689628000488)"><path d="M0.4 -0.89 C17.02 -0.69, 83.21 0.64, 100.08 0.85 M-0.85 1.26 C15.55 1.65, 81.9 2.14, 98.94 2.11" stroke="#1e1e1e" stroke-width="2" fill="none"></path></g><g transform="translate(1455.6796875 464.439453125) rotate(0 49.61360621531503 0.6149689628000488)"><path d="M75.42 10.57 C81.69 7.12, 90.04 6.83, 98.94 2.11 M75.42 10.57 C80.74 9.38, 85.98 8.01, 98.94 2.11" stroke="#1e1e1e" stroke-width="2" fill="none"></path></g><g transform="translate(1455.6796875 464.439453125) rotate(0 49.61360621531503 0.6149689628000488)"><path d="M75.48 -6.53 C81.69 -4.37, 90.01 0.97, 98.94 2.11 M75.48 -6.53 C80.69 -4.06, 85.91 -1.78, 98.94 2.11" stroke="#1e1e1e" stroke-width="2" fill="none"></path></g></g><mask id="mask-RjhNJW2-642A3jJMYDfL1"><rect x="0" y="0" fill="#fff" width="1656.1171875" height="565.802734375"></rect><rect x="1489.0584564208984" y="452.62109375" fill="#000" width="33.679962158203125" height="25" opacity="1"></rect></mask><g transform="translate(1489.0584564208984 452.62109375) rotate(0 16.234837294416593 12.433328337800049)"><text x="16.839981079101562" y="17.52" font-family="Virgil, Segoe UI Emoji" font-size="20px" fill="#1e1e1e" text-anchor="middle" style="white-space: pre;" direction="ltr" dominant-baseline="alphabetic">Sub</text></g><g stroke-linecap="round" transform="translate(1559.15234375 284.333984375) rotate(0 279.8359375 187.869140625)"><path d="M32 0 C167.89 -1, 302.62 -1.93, 527.67 0 M32 0 C187.51 -1.4, 342.39 -1.47, 527.67 0 M527.67 0 C548.99 -0.12, 559.98 9.39, 559.67 32 M527.67 0 C550.81 -1.54, 561.44 11.63, 559.67 32 M559.67 32 C556.48 108.31, 558.14 186.3, 559.67 343.74 M559.67 32 C559.9 110.91, 560.88 189.04, 559.67 343.74 M559.67 343.74 C559.53 363.67, 547.52 374.09, 527.67 375.74 M559.67 343.74 C561.14 365.77, 548.59 375.41, 527.67 375.74 M527.67 375.74 C411.18 377.87, 293.9 376.69, 32 375.74 M527.67 375.74 C423.54 376.54, 318.62 376.62, 32 375.74 M32 375.74 C10.39 374.93, 0.08 366.96, 0 343.74 M32 375.74 C8.97 374.2, 2.15 365.61, 0 343.74 M0 343.74 C0.65 231.81, 0.17 119.75, 0 32 M0 343.74 C1.44 236.46, 1.95 129.34, 0 32 M0 32 C1.82 11.86, 8.92 -0.49, 32 0 M0 32 C0.91 12.31, 9.61 -0.04, 32 0" stroke="#1e1e1e" stroke-width="2" fill="none"></path></g><g transform="translate(1578.47976497306 336.9240656663857) rotate(0 130.31991577148438 12.5)"><text x="0" y="17.52" font-family="Virgil, Segoe UI Emoji" font-size="20px" fill="#1e1e1e" text-anchor="start" style="white-space: pre;" direction="ltr" dominant-baseline="alphabetic">BigQuery Table: STAGING</text></g><g transform="translate(1626.0997974233924 414.00329008174856) rotate(0 94.43615384715395 64.9850227260855)"><text x="0" y="15.180501308813563" font-family="Virgil, Segoe UI Emoji" font-size="17.32933939362279px" fill="#1e1e1e" text-anchor="start" style="white-space: pre;" direction="ltr" dominant-baseline="alphabetic">key - string - txnHash</text><text x="0" y="36.84217555084205" font-family="Virgil, Segoe UI Emoji" font-size="17.32933939362279px" fill="#1e1e1e" text-anchor="start" style="white-space: pre;" direction="ltr" dominant-baseline="alphabetic">date - date</text><text x="0" y="58.50384979287053" font-family="Virgil, Segoe UI Emoji" font-size="17.32933939362279px" fill="#1e1e1e" text-anchor="start" style="white-space: pre;" direction="ltr" dominant-baseline="alphabetic">projId - string</text><text x="0" y="80.16552403489902" font-family="Virgil, Segoe UI Emoji" font-size="17.32933939362279px" fill="#1e1e1e" text-anchor="start" style="white-space: pre;" direction="ltr" dominant-baseline="alphabetic">vol - float</text><text x="0" y="101.8271982769275" font-family="Virgil, Segoe UI Emoji" font-size="17.32933939362279px" fill="#1e1e1e" text-anchor="start" style="white-space: pre;" direction="ltr" dominant-baseline="alphabetic">currency - string</text><text x="0" y="123.48887251895599" font-family="Virgil, Segoe UI Emoji" font-size="17.32933939362279px" fill="#1e1e1e" text-anchor="start" style="white-space: pre;" direction="ltr" dominant-baseline="alphabetic">vol_usd - float</text></g><g transform="translate(1890.4547151231181 316.30518012210155) rotate(0 103.25991821289062 162.5)"><text x="0" y="17.52" font-family="Virgil, Segoe UI Emoji" font-size="20px" fill="#1e1e1e" text-anchor="start" style="white-space: pre;" direction="ltr" dominant-baseline="alphabetic">Reasoning</text><text x="0" y="42.519999999999996" font-family="Virgil, Segoe UI Emoji" font-size="20px" fill="#1e1e1e" text-anchor="start" style="white-space: pre;" direction="ltr" dominant-baseline="alphabetic">1. key is txnHash</text><text x="0" y="67.52" font-family="Virgil, Segoe UI Emoji" font-size="20px" fill="#1e1e1e" text-anchor="start" style="white-space: pre;" direction="ltr" dominant-baseline="alphabetic">  because it's </text><text x="0" y="92.52" font-family="Virgil, Segoe UI Emoji" font-size="20px" fill="#1e1e1e" text-anchor="start" style="white-space: pre;" direction="ltr" dominant-baseline="alphabetic">  unique per </text><text x="0" y="117.52" font-family="Virgil, Segoe UI Emoji" font-size="20px" fill="#1e1e1e" text-anchor="start" style="white-space: pre;" direction="ltr" dominant-baseline="alphabetic">  transaction</text><text x="0" y="142.52" font-family="Virgil, Segoe UI Emoji" font-size="20px" fill="#1e1e1e" text-anchor="start" style="white-space: pre;" direction="ltr" dominant-baseline="alphabetic">2. vol, vol_usd</text><text x="0" y="167.52" font-family="Virgil, Segoe UI Emoji" font-size="20px" fill="#1e1e1e" text-anchor="start" style="white-space: pre;" direction="ltr" dominant-baseline="alphabetic">   is float</text><text x="0" y="192.52" font-family="Virgil, Segoe UI Emoji" font-size="20px" fill="#1e1e1e" text-anchor="start" style="white-space: pre;" direction="ltr" dominant-baseline="alphabetic">   because vol to</text><text x="0" y="217.52" font-family="Virgil, Segoe UI Emoji" font-size="20px" fill="#1e1e1e" text-anchor="start" style="white-space: pre;" direction="ltr" dominant-baseline="alphabetic">   vol usd conversion</text><text x="0" y="242.52" font-family="Virgil, Segoe UI Emoji" font-size="20px" fill="#1e1e1e" text-anchor="start" style="white-space: pre;" direction="ltr" dominant-baseline="alphabetic">   rate is between</text><text x="0" y="267.52" font-family="Virgil, Segoe UI Emoji" font-size="20px" fill="#1e1e1e" text-anchor="start" style="white-space: pre;" direction="ltr" dominant-baseline="alphabetic">   0.5 to 1 in our</text><text x="0" y="292.52" font-family="Virgil, Segoe UI Emoji" font-size="20px" fill="#1e1e1e" text-anchor="start" style="white-space: pre;" direction="ltr" dominant-baseline="alphabetic">   case. USD needs </text><text x="0" y="317.52" font-family="Virgil, Segoe UI Emoji" font-size="20px" fill="#1e1e1e" text-anchor="start" style="white-space: pre;" direction="ltr" dominant-baseline="alphabetic">   no more prescision</text></g><g mask="url(#mask-pBWMa2FcjxmKN6kbWMuTz)" stroke-linecap="round"><g transform="translate(1207.203125 423.869140625) rotate(0 -5.437920334376486 -148.67183104269205)"><path d="M-0.18 0.17 C-1.79 -49.31, -8.06 -248.05, -9.46 -297.51 M-1.74 -0.79 C-3.56 -50.07, -9.46 -247.28, -10.69 -296.34" stroke="#1e1e1e" stroke-width="2" fill="none"></path></g><g transform="translate(1207.203125 423.869140625) rotate(0 -5.437920334376486 -148.67183104269205)"><path d="M-1.49 -273.1 C-3.99 -281.36, -8.33 -287.18, -10.69 -296.34 M-1.49 -273.1 C-4 -279.86, -8.15 -288.85, -10.69 -296.34" stroke="#1e1e1e" stroke-width="2" fill="none"></path></g><g transform="translate(1207.203125 423.869140625) rotate(0 -5.437920334376486 -148.67183104269205)"><path d="M-18.58 -272.62 C-15.69 -281, -14.64 -286.98, -10.69 -296.34 M-18.58 -272.62 C-15.62 -279.56, -14.31 -288.7, -10.69 -296.34" stroke="#1e1e1e" stroke-width="2" fill="none"></path></g></g><mask id="mask-pBWMa2FcjxmKN6kbWMuTz"><rect x="0" y="0" fill="#fff" width="1316.10546875" height="820.689453125"></rect><rect x="1123.5820236206055" y="262.958984375" fill="#000" width="158.33985900878906" height="25" opacity="1"></rect></mask><g transform="translate(1123.5820236206055 262.958984375) rotate(0 78.18318104501805 12.238325207307952)"><text x="79.16992950439453" y="17.52" font-family="Virgil, Segoe UI Emoji" font-size="20px" fill="#1e1e1e" text-anchor="middle" style="white-space: pre;" direction="ltr" dominant-baseline="alphabetic">Failed attempts</text></g><g stroke-linecap="round" transform="translate(997.31640625 70.103515625) rotate(0 237.908203125 29.357421875)"><path d="M14.68 0 C149.57 -0.95, 284.67 0.92, 461.14 0 M14.68 0 C150.41 1.91, 286.84 1.71, 461.14 0 M461.14 0 C469.45 1.86, 477.57 6.7, 475.82 14.68 M461.14 0 C471.81 -0.73, 474.17 5.17, 475.82 14.68 M475.82 14.68 C476.82 24.47, 475.09 30.45, 475.82 44.04 M475.82 14.68 C475.25 26.72, 476.27 36.44, 475.82 44.04 M475.82 44.04 C473.99 52.47, 471.9 59.13, 461.14 58.71 M475.82 44.04 C477.81 52.47, 472.61 60.39, 461.14 58.71 M461.14 58.71 C287.36 57.26, 113.39 57.29, 14.68 58.71 M461.14 58.71 C305.23 57.38, 149.77 57.32, 14.68 58.71 M14.68 58.71 C4.45 59.8, 1.38 53.99, 0 44.04 M14.68 58.71 C4.41 57.14, 0.9 53.08, 0 44.04 M0 44.04 C-1.85 35.77, -1.66 23.11, 0 14.68 M0 44.04 C-0.08 35.25, 0.21 24.95, 0 14.68 M0 14.68 C-1.15 5.51, 4.86 -1.67, 14.68 0 M0 14.68 C1.53 4.53, 5.75 -1.97, 14.68 0" stroke="#1e1e1e" stroke-width="2" fill="none"></path></g><g transform="translate(1055.83984375 90.341796875) rotate(0 96.47992706298828 12.5)"><text x="0" y="17.52" font-family="Virgil, Segoe UI Emoji" font-size="20px" fill="#1e1e1e" text-anchor="start" style="white-space: pre;" direction="ltr" dominant-baseline="alphabetic">DLQ || Schema: none</text></g><g stroke-linecap="round"><g transform="translate(1473.9332687846845 99.85964041219995) rotate(0 50.23678889598705 0.8729366470128355)"><path d="M0.36 -0.54 C17.38 -0.03, 84.85 1.93, 101.39 2.29 M-0.92 1.78 C16.1 2.05, 83.79 0.44, 100.94 0.65" stroke="#1e1e1e" stroke-width="2" fill="none"></path></g><g transform="translate(1473.9332687846845 99.85964041219995) rotate(0 50.23678889598705 0.8729366470128355)"><path d="M77.52 9.38 C82.18 8.85, 90.14 3.79, 100.94 0.65 M77.52 9.38 C84.4 6.66, 92.16 2.61, 100.94 0.65" stroke="#1e1e1e" stroke-width="2" fill="none"></path></g><g transform="translate(1473.9332687846845 99.85964041219995) rotate(0 50.23678889598705 0.8729366470128355)"><path d="M77.39 -7.72 C81.96 -4.23, 89.96 -5.27, 100.94 0.65 M77.39 -7.72 C84.38 -4.93, 92.18 -3.47, 100.94 0.65" stroke="#1e1e1e" stroke-width="2" fill="none"></path></g></g><mask></mask><g stroke-linecap="round" transform="translate(1575.80859375 10) rotate(0 157.83984375 95.90625)"><path d="M32 0 C115.1 0.21, 195.57 2.02, 283.68 0 M32 0 C92.93 -1.3, 152.92 -2.25, 283.68 0 M283.68 0 C306.88 -0.38, 317.34 10.1, 315.68 32 M283.68 0 C302.84 -0.21, 315.48 11.33, 315.68 32 M315.68 32 C315.17 77.18, 316.42 126.78, 315.68 159.81 M315.68 32 C314.83 73.75, 315.88 116.94, 315.68 159.81 M315.68 159.81 C315.54 181.78, 305.36 192.53, 283.68 191.81 M315.68 159.81 C314.47 182.31, 306.15 191.25, 283.68 191.81 M283.68 191.81 C228.88 192.93, 171.8 195.05, 32 191.81 M283.68 191.81 C217.42 191.49, 151.53 191.34, 32 191.81 M32 191.81 C11.02 191.42, -1.01 182.55, 0 159.81 M32 191.81 C11.83 192.05, -2.23 180.71, 0 159.81 M0 159.81 C0.22 129.09, -2.19 95.31, 0 32 M0 159.81 C0.72 120.67, 1.55 78.99, 0 32 M0 32 C-0.41 9.2, 10.53 -0.86, 32 0 M0 32 C-0.22 8.93, 11.73 -0.88, 32 0" stroke="#1e1e1e" stroke-width="2" fill="none"></path></g><g transform="translate(1606.83984375 40.341796875) rotate(0 137.43988037109375 12.5)"><text x="0" y="17.52" font-family="Virgil, Segoe UI Emoji" font-size="20px" fill="#1e1e1e" text-anchor="start" style="white-space: pre;" direction="ltr" dominant-baseline="alphabetic">BigQuery Table: stagingDLQ</text></g><g transform="translate(1613.83984375 86.341796875) rotate(0 64.90995788574219 25)"><text x="0" y="17.52" font-family="Virgil, Segoe UI Emoji" font-size="20px" fill="#1e1e1e" text-anchor="start" style="white-space: pre;" direction="ltr" dominant-baseline="alphabetic">Schema: </text><text x="0" y="42.519999999999996" font-family="Virgil, Segoe UI Emoji" font-size="20px" fill="#1e1e1e" text-anchor="start" style="white-space: pre;" direction="ltr" dominant-baseline="alphabetic">data - JSON</text></g><g stroke-linecap="round" transform="translate(1598.1044212603756 824.3925270098327) rotate(0 291.974609375 143.548828125)"><path d="M32 0 C211.72 -1.68, 388.16 -1.46, 551.95 0 C570.84 -0.89, 585.06 9.52, 583.95 32 C584.25 89.76, 580.06 148.28, 583.95 255.1 C585.13 273.52, 571.77 285.65, 551.95 287.1 C444.38 286.79, 336.16 286.53, 32 287.1 C10.21 288.42, -1.13 273.44, 0 255.1 C-1.8 188.14, -2.34 118, 0 32 C0.89 9.93, 11.98 3.45, 32 0" stroke="none" stroke-width="0" fill="#b2f2bb"></path><path d="M32 0 C206.46 0.06, 381.1 0.38, 551.95 0 M32 0 C177.5 1.74, 322.2 1.22, 551.95 0 M551.95 0 C572.9 -1.47, 584.52 12.23, 583.95 32 M551.95 0 C574.07 -1.69, 584.02 9.62, 583.95 32 M583.95 32 C586.65 108.28, 585.76 182.24, 583.95 255.1 M583.95 32 C583.02 93.69, 583.58 154.73, 583.95 255.1 M583.95 255.1 C585.76 278.07, 572.21 287.6, 551.95 287.1 M583.95 255.1 C584.66 275.12, 574.31 287.11, 551.95 287.1 M551.95 287.1 C445.07 286.21, 338.55 287.68, 32 287.1 M551.95 287.1 C386.75 286.6, 222.12 286.98, 32 287.1 M32 287.1 C10.94 288.85, 0.59 276.96, 0 255.1 M32 287.1 C12.14 287.65, 1.97 274.29, 0 255.1 M0 255.1 C2.98 167.31, 0.88 77.51, 0 32 M0 255.1 C-0.28 185.99, -0.91 115.76, 0 32 M0 32 C-0.8 9.75, 9.8 1.3, 32 0 M0 32 C1.67 10.33, 11.03 1.86, 32 0" stroke="#1e1e1e" stroke-width="2" fill="none"></path></g><g transform="translate(1608.8290306353756 883.9413551348327) rotate(0 281.25 84)"><text x="281.25" y="19.3125" font-family="Cascadia, Segoe UI Emoji" font-size="20px" fill="#1e1e1e" text-anchor="middle" style="white-space: pre;" direction="ltr" dominant-baseline="alphabetic">RESULT: Materialized View</text><text x="281.25" y="43.3125" font-family="Cascadia, Segoe UI Emoji" font-size="20px" fill="#1e1e1e" text-anchor="middle" style="white-space: pre;" direction="ltr" dominant-baseline="alphabetic"></text><text x="281.25" y="67.3125" font-family="Cascadia, Segoe UI Emoji" font-size="20px" fill="#1e1e1e" text-anchor="middle" style="white-space: pre;" direction="ltr" dominant-baseline="alphabetic">SELECT date, project_id, COUNT(volume) AS </text><text x="281.25" y="91.3125" font-family="Cascadia, Segoe UI Emoji" font-size="20px" fill="#1e1e1e" text-anchor="middle" style="white-space: pre;" direction="ltr" dominant-baseline="alphabetic">total_transactions, SUM(volume_usd) AS </text><text x="281.25" y="115.3125" font-family="Cascadia, Segoe UI Emoji" font-size="20px" fill="#1e1e1e" text-anchor="middle" style="white-space: pre;" direction="ltr" dominant-baseline="alphabetic">total_volume_in_usd FROM staging_table GROUP BY </text><text x="281.25" y="139.3125" font-family="Cascadia, Segoe UI Emoji" font-size="20px" fill="#1e1e1e" text-anchor="middle" style="white-space: pre;" direction="ltr" dominant-baseline="alphabetic">date, project_id</text><text x="281.25" y="163.3125" font-family="Cascadia, Segoe UI Emoji" font-size="20px" fill="#1e1e1e" text-anchor="middle" style="white-space: pre;" direction="ltr" dominant-baseline="alphabetic"></text></g><g transform="translate(1590.7734375 593.9403076171875) rotate(0 114.86992645263672 25)"><text x="0" y="17.52" font-family="Virgil, Segoe UI Emoji" font-size="20px" fill="#1e1e1e" text-anchor="start" style="white-space: pre;" direction="ltr" dominant-baseline="alphabetic">PARTITION: projId</text><text x="0" y="42.519999999999996" font-family="Virgil, Segoe UI Emoji" font-size="20px" fill="#1e1e1e" text-anchor="start" style="white-space: pre;" direction="ltr" dominant-baseline="alphabetic">CLUSTER: date, projId</text></g><g stroke-linecap="round"><g transform="translate(1818.315766292426 663.6623239096127) rotate(0 0.6357585701755397 77.76359071103252)"><path d="M0.48 1.1 C0.71 21.06, 0.84 93.88, 1.09 119.39 C1.34 144.91, 1.81 148.32, 1.99 154.17 M-0.72 0.63 C-0.57 20.26, 0.18 91.83, 0.45 117.54 C0.72 143.25, 0.62 148.63, 0.92 154.9" stroke="#1e1e1e" stroke-width="2" fill="none"></path></g><g transform="translate(1818.315766292426 663.6623239096127) rotate(0 0.6357585701755397 77.76359071103252)"><path d="M-5.84 137.96 C-2.35 143.48, -1.4 146.35, 0.92 154.9 M-5.84 137.96 C-3.62 142.18, -3.92 145.49, 0.92 154.9" stroke="#1e1e1e" stroke-width="2" fill="none"></path></g><g transform="translate(1818.315766292426 663.6623239096127) rotate(0 0.6357585701755397 77.76359071103252)"><path d="M6.63 137.58 C6.68 143.26, 4.2 146.23, 0.92 154.9 M6.63 137.58 C6.28 141.79, 3.41 145.18, 0.92 154.9" stroke="#1e1e1e" stroke-width="2" fill="none"></path></g></g><mask></mask><g transform="translate(549.1360682089917 340.74421434008514) rotate(0 73.828125 16.80000000000001)"><text x="73.828125" y="27.0375" font-family="Cascadia, Segoe UI Emoji" font-size="28px" fill="#1e1e1e" text-anchor="middle" style="white-space: pre;" direction="ltr" dominant-baseline="alphabetic">REQ 1: GO</text></g><g transform="translate(1576.1022809021142 291.12387319392974) rotate(0 131.25 16.80000000000001)"><text x="131.25" y="27.0375" font-family="Cascadia, Segoe UI Emoji" font-size="28px" fill="#1e1e1e" text-anchor="middle" style="white-space: pre;" direction="ltr" dominant-baseline="alphabetic">REQ 3: BIG QUERY</text></g><g transform="translate(1746.332440622939 843.1626629255024) rotate(0 140.625 12)"><text x="140.625" y="19.3125" font-family="Cascadia, Segoe UI Emoji" font-size="20px" fill="#1e1e1e" text-anchor="middle" style="white-space: pre;" direction="ltr" dominant-baseline="alphabetic">REQ 4: AGGREGATE RESULTS</text></g><g stroke-linecap="round" transform="translate(616.2777503042053 677.3247452287966) rotate(0 146.912109375 121.06445312499994)"><path d="M32 0 C89.04 2.11, 146.76 2.86, 261.82 0 M32 0 C96.18 1.38, 159.66 1.36, 261.82 0 M261.82 0 C281.19 1.03, 293.57 9.91, 293.82 32 M261.82 0 C281.64 2.01, 292.85 9.1, 293.82 32 M293.82 32 C291.32 91.78, 293.81 150.98, 293.82 210.13 M293.82 32 C293.46 74.86, 293.46 116.49, 293.82 210.13 M293.82 210.13 C294.72 231.47, 284.23 241.56, 261.82 242.13 M293.82 210.13 C295.6 230.61, 282.68 243.5, 261.82 242.13 M261.82 242.13 C191.36 240.8, 123.24 240.71, 32 242.13 M261.82 242.13 C184.69 242.79, 107.49 243.08, 32 242.13 M32 242.13 C12.33 242, -0.02 232.81, 0 210.13 M32 242.13 C10.36 240.75, 0.71 230.4, 0 210.13 M0 210.13 C0.19 153.42, 1.75 99.7, 0 32 M0 210.13 C-1.36 168.75, -2.38 126.71, 0 32 M0 32 C0.33 12.16, 11.07 -0.22, 32 0 M0 32 C-1.21 10.93, 12.41 -1.81, 32 0" stroke="#1e1e1e" stroke-width="2" fill="none"></path></g><g transform="translate(639.7499487905334 748.3891983537966) rotate(0 123.43991088867188 49.99999999999994)"><text x="123.43991088867188" y="17.52" font-family="Virgil, Segoe UI Emoji" font-size="20px" fill="#1e1e1e" text-anchor="middle" style="white-space: pre;" direction="ltr" dominant-baseline="alphabetic">Get crypto to USD rate</text><text x="123.43991088867188" y="42.519999999999996" font-family="Virgil, Segoe UI Emoji" font-size="20px" fill="#1e1e1e" text-anchor="middle" style="white-space: pre;" direction="ltr" dominant-baseline="alphabetic">Has 5 calls per min limit</text><text x="123.43991088867188" y="67.52" font-family="Virgil, Segoe UI Emoji" font-size="20px" fill="#1e1e1e" text-anchor="middle" style="white-space: pre;" direction="ltr" dominant-baseline="alphabetic">(30/min for demo that </text><text x="123.43991088867188" y="92.52" font-family="Virgil, Segoe UI Emoji" font-size="20px" fill="#1e1e1e" text-anchor="middle" style="white-space: pre;" direction="ltr" dominant-baseline="alphabetic">didn't work)</text></g><g mask="url(#mask-7sSn-9rDG-x3c9-TYV4_b)" stroke-linecap="round"><g transform="translate(717.2229293167295 575.7927046811523) rotate(0 0.7847658095151928 50.851238547521405)"><path d="M0.44 1.06 C0.72 17.8, 2.38 83.41, 2.35 99.92 M-0.78 0.57 C-0.63 17.51, 1.45 84.35, 2.03 101.13" stroke="#1e1e1e" stroke-width="2" fill="none"></path></g><g transform="translate(717.2229293167295 575.7927046811523) rotate(0 0.7847658095151928 50.851238547521405)"><path d="M-7.27 77.93 C-2.27 88.21, -1.72 93.08, 2.03 101.13 M-7.27 77.93 C-4.68 84.45, -2.64 89.28, 2.03 101.13" stroke="#1e1e1e" stroke-width="2" fill="none"></path></g><g transform="translate(717.2229293167295 575.7927046811523) rotate(0 0.7847658095151928 50.851238547521405)"><path d="M9.82 77.38 C8.67 87.92, 3.09 92.99, 2.03 101.13 M9.82 77.38 C7.86 84.15, 5.33 89.12, 2.03 101.13" stroke="#1e1e1e" stroke-width="2" fill="none"></path></g></g><mask id="mask-7sSn-9rDG-x3c9-TYV4_b"><rect x="0" y="0" fill="#fff" width="818.3912417733625" height="776.3247452287965"></rect><rect x="676.9671273541278" y="613.5587249549745" fill="#000" width="81.67991638183594" height="25" opacity="1"></rect></mask><g transform="translate(676.967127354128 613.5587249549744) rotate(0 41.040567772116674 13.08521827369924)"><text x="40.83995819091797" y="17.52" font-family="Virgil, Segoe UI Emoji" font-size="20px" fill="#1e1e1e" text-anchor="middle" style="white-space: pre;" direction="ltr" dominant-baseline="alphabetic">symbolId</text></g><g transform="translate(624.4439591928653 693.7785058609268) rotate(0 139.453125 16.80000000000001)"><text x="139.453125" y="27.0375" font-family="Cascadia, Segoe UI Emoji" font-size="28px" fill="#1e1e1e" text-anchor="middle" style="white-space: pre;" direction="ltr" dominant-baseline="alphabetic">REQ 2: Coin Gecko</text></g><g transform="translate(1586.8890627003793 378.22409097545744) rotate(0 10.7239990234375 105)"><text x="10.7239990234375" y="24.528" font-family="Virgil, Segoe UI Emoji" font-size="28px" fill="#1e1e1e" text-anchor="middle" style="white-space: pre;" direction="ltr" dominant-baseline="alphabetic">S</text><text x="10.7239990234375" y="59.528" font-family="Virgil, Segoe UI Emoji" font-size="28px" fill="#1e1e1e" text-anchor="middle" style="white-space: pre;" direction="ltr" dominant-baseline="alphabetic">C</text><text x="10.7239990234375" y="94.52799999999999" font-family="Virgil, Segoe UI Emoji" font-size="28px" fill="#1e1e1e" text-anchor="middle" style="white-space: pre;" direction="ltr" dominant-baseline="alphabetic">H</text><text x="10.7239990234375" y="129.528" font-family="Virgil, Segoe UI Emoji" font-size="28px" fill="#1e1e1e" text-anchor="middle" style="white-space: pre;" direction="ltr" dominant-baseline="alphabetic">E</text><text x="10.7239990234375" y="164.528" font-family="Virgil, Segoe UI Emoji" font-size="28px" fill="#1e1e1e" text-anchor="middle" style="white-space: pre;" direction="ltr" dominant-baseline="alphabetic">M</text><text x="10.7239990234375" y="199.528" font-family="Virgil, Segoe UI Emoji" font-size="28px" fill="#1e1e1e" text-anchor="middle" style="white-space: pre;" direction="ltr" dominant-baseline="alphabetic">A</text></g><g mask="url(#mask-fHfyisQxiY9xZiDlxc0ji)" stroke-linecap="round"><g transform="translate(807.7692240573599 675.2836929418191) rotate(0 -1.0683000220041095 -49.729944048839855)"><path d="M-0.77 -1 C-1.23 -17.62, -2.46 -83.88, -2.78 -100.55 M1.03 1.09 C0.5 -15.25, -2.53 -82.13, -3.16 -98.96" stroke="#1e1e1e" stroke-width="2" fill="none"></path></g><g transform="translate(807.7692240573599 675.2836929418191) rotate(0 -1.0683000220041095 -49.729944048839855)"><path d="M6.36 -75.85 C2 -81.04, 0.99 -87.76, -3.16 -98.96 M6.36 -75.85 C3.99 -81.13, 1.2 -89.03, -3.16 -98.96" stroke="#1e1e1e" stroke-width="2" fill="none"></path></g><g transform="translate(807.7692240573599 675.2836929418191) rotate(0 -1.0683000220041095 -49.729944048839855)"><path d="M-10.72 -75.13 C-9.96 -80.43, -5.87 -87.36, -3.16 -98.96 M-10.72 -75.13 C-8.47 -80.63, -6.63 -88.73, -3.16 -98.96" stroke="#1e1e1e" stroke-width="2" fill="none"></path></g></g><mask id="mask-fHfyisQxiY9xZiDlxc0ji"><rect x="0" y="0" fill="#fff" width="911.6153628508246" height="875.9372420468585"></rect><rect x="764.4761900610181" y="612.4569183892994" fill="#000" width="82.73992919921875" height="25" opacity="1"></rect></mask><g transform="translate(764.4761900610183 612.4569183892995) rotate(0 42.22473397433748 13.096830503679769)"><text x="41.369964599609375" y="17.52" font-family="Virgil, Segoe UI Emoji" font-size="20px" fill="#1e1e1e" text-anchor="middle" style="white-space: pre;" direction="ltr" dominant-baseline="alphabetic">usdRate</text></g><g stroke-linecap="round" transform="translate(326.4787224943152 699.6829386630802) rotate(0 140.0449857151832 112.42205565254869)"><path d="M32 0 C108.45 1.07, 188.43 1.89, 248.09 0 M32 0 C116.12 0.08, 200.34 0.35, 248.09 0 M248.09 0 C270.73 -0.69, 280.7 12.39, 280.09 32 M248.09 0 C270.8 -1.13, 280.96 10.1, 280.09 32 M280.09 32 C279.57 87.98, 277.22 141.76, 280.09 192.84 M280.09 32 C279.11 87.34, 280.69 144.04, 280.09 192.84 M280.09 192.84 C279.4 213.8, 267.69 224.57, 248.09 224.84 M280.09 192.84 C278.75 212.69, 269.45 225.32, 248.09 224.84 M248.09 224.84 C167.21 223.38, 87.61 224.13, 32 224.84 M248.09 224.84 C183.5 223.49, 118.73 224.11, 32 224.84 M32 224.84 C11.27 223.65, -1.53 215.52, 0 192.84 M32 224.84 C11.75 223.69, 2.26 212.59, 0 192.84 M0 192.84 C1.26 157.28, -0.14 117.1, 0 32 M0 192.84 C0 153, 0.38 113.04, 0 32 M0 32 C-0.79 9.46, 11.54 -1.5, 32 0 M0 32 C0.03 12.56, 11.95 -0.56, 32 0" stroke="#1e1e1e" stroke-width="2" fill="none"></path></g><g transform="translate(383.2576499297386 733.1550029739625) rotate(0 85.31991577148438 12.5)"><text x="85.31991577148438" y="17.52" font-family="Virgil, Segoe UI Emoji" font-size="20px" fill="#1e1e1e" text-anchor="middle" style="white-space: pre;" direction="ltr" dominant-baseline="alphabetic">symbolMapper.json</text></g><g transform="translate(343.5174732049154 755.4907031964627) rotate(0 130.49990844726562 62.49999999999994)"><text x="130.49990844726562" y="17.52" font-family="Virgil, Segoe UI Emoji" font-size="20px" fill="#1e1e1e" text-anchor="middle" style="white-space: pre;" direction="ltr" dominant-baseline="alphabetic">symbol: symbolId</text><text x="130.49990844726562" y="42.519999999999996" font-family="Virgil, Segoe UI Emoji" font-size="20px" fill="#1e1e1e" text-anchor="middle" style="white-space: pre;" direction="ltr" dominant-baseline="alphabetic"></text><text x="130.49990844726562" y="67.52" font-family="Virgil, Segoe UI Emoji" font-size="20px" fill="#1e1e1e" text-anchor="middle" style="white-space: pre;" direction="ltr" dominant-baseline="alphabetic">Acquired with a separate </text><text x="130.49990844726562" y="92.52" font-family="Virgil, Segoe UI Emoji" font-size="20px" fill="#1e1e1e" text-anchor="middle" style="white-space: pre;" direction="ltr" dominant-baseline="alphabetic">python function </text><text x="130.49990844726562" y="117.52" font-family="Virgil, Segoe UI Emoji" font-size="20px" fill="#1e1e1e" text-anchor="middle" style="white-space: pre;" direction="ltr" dominant-baseline="alphabetic">requesting CoinGeckoAPI</text></g><g mask="url(#mask-S12YozCbPjmS_QdZIuVNO)" stroke-linecap="round"><g transform="translate(529.4437184877879 563.3768398551922) rotate(0 -61.11795101435871 66.25170741848143)"><path d="M0.97 0.98 C-16.62 3.39, -84.4 -7.54, -104.94 14.08 C-125.49 35.7, -119.41 111.4, -122.28 130.72 M0.02 0.45 C-17.23 3.09, -82 -6.33, -102.54 15.62 C-123.08 37.58, -119.96 112.99, -123.21 132.2" stroke="#1e1e1e" stroke-width="2" fill="none"></path></g><g transform="translate(529.4437184877879 563.3768398551922) rotate(0 -61.11795101435871 66.25170741848143)"><path d="M-130.14 108.18 C-126.14 115.62, -125.3 124.53, -123.21 132.2 M-130.14 108.18 C-127.59 117.04, -125.54 123.88, -123.21 132.2" stroke="#1e1e1e" stroke-width="2" fill="none"></path></g><g transform="translate(529.4437184877879 563.3768398551922) rotate(0 -61.11795101435871 66.25170741848143)"><path d="M-113.07 109.35 C-115.08 116.51, -120.25 125.01, -123.21 132.2 M-113.07 109.35 C-116.09 117.77, -119.61 124.24, -123.21 132.2" stroke="#1e1e1e" stroke-width="2" fill="none"></path></g></g><mask id="mask-S12YozCbPjmS_QdZIuVNO"><rect x="0" y="0" fill="#fff" width="751.4155157387258" height="793.7829423778916"></rect><rect x="395.3832916804847" y="564.939665877346" fill="#000" width="59.399932861328125" height="25" opacity="1"></rect></mask><g transform="translate(395.3832916804847 564.9396658773459) rotate(0 72.94247579294449 64.68888139632776)"><text x="29.699966430664062" y="17.52" font-family="Virgil, Segoe UI Emoji" font-size="20px" fill="#1e1e1e" text-anchor="middle" style="white-space: pre;" direction="ltr" dominant-baseline="alphabetic">symbol</text></g><g mask="url(#mask-5PROMJsfI_rXS1U70mkSy)" stroke-linecap="round"><g transform="translate(454.38340507117323 697.3432849637813) rotate(0 61.87597111089076 -61.11695729558545)"><path d="M0.66 1.06 C19.49 -4.98, 91.91 -15.9, 112.21 -36.63 C132.5 -57.35, 120.48 -108.91, 122.41 -123.29 M-0.46 0.57 C18.36 -5.25, 91.37 -14.77, 111.69 -35.2 C132.01 -55.62, 119.3 -107.58, 121.44 -121.99" stroke="#1e1e1e" stroke-width="2" fill="none"></path></g><g transform="translate(454.38340507117323 697.3432849637813) rotate(0 61.87597111089076 -61.11695729558545)"><path d="M130.86 -98.83 C130.5 -102.82, 126.19 -110.25, 121.44 -121.99 M130.86 -98.83 C128.65 -106.08, 125.79 -112.25, 121.44 -121.99" stroke="#1e1e1e" stroke-width="2" fill="none"></path></g><g transform="translate(454.38340507117323 697.3432849637813) rotate(0 61.87597111089076 -61.11695729558545)"><path d="M113.77 -98.19 C117.41 -102.43, 117.1 -110.01, 121.44 -121.99 M113.77 -98.19 C116.65 -105.68, 118.88 -112.04, 121.44 -121.99" stroke="#1e1e1e" stroke-width="2" fill="none"></path></g></g><mask id="mask-5PROMJsfI_rXS1U70mkSy"><rect x="0" y="0" fill="#fff" width="677.1752805761387" height="920.6134864953779"></rect><rect x="524.9228500963006" y="648.4163785067865" fill="#000" width="81.67991638183594" height="25" opacity="1"></rect></mask><g transform="translate(524.9228500963006 648.4163785067864) rotate(0 -8.663473914236647 -12.19005083859048)"><text x="40.83995819091797" y="17.52" font-family="Virgil, Segoe UI Emoji" font-size="20px" fill="#1e1e1e" text-anchor="middle" style="white-space: pre;" direction="ltr" dominant-baseline="alphabetic">symbolId</text></g><g transform="translate(478.85161035415604 603.7260962323124) rotate(0 4.877998352050781 22.5)"><text x="4.877998352050781" y="31.536" font-family="Virgil, Segoe UI Emoji" font-size="36px" fill="#1e1e1e" text-anchor="middle" style="white-space: pre;" direction="ltr" dominant-baseline="alphabetic">1</text></g><g transform="translate(745.8301901164218 633.2042307211846) rotate(0 12.815994262695312 22.5)"><text x="12.815994262695312" y="31.536" font-family="Virgil, Segoe UI Emoji" font-size="36px" fill="#1e1e1e" text-anchor="middle" style="white-space: pre;" direction="ltr" dominant-baseline="alphabetic">2</text></g></svg>